<?xml version="1.0" standalone="no"?>
<!DOCTYPE svg PUBLIC "-//W3C//DTD SVG 20010904//EN"
 "http://www.w3.org/TR/2001/REC-SVG-20010904/DTD/svg10.dtd">
<svg version="1.0" xmlns="http://www.w3.org/2000/svg"
 width="512.000000pt" height="512.000000pt" viewBox="0 0 512.000000 512.000000"
 preserveAspectRatio="xMidYMid meet">
<metadata>
Created by potrace 1.11, written by Peter Selinger 2001-2013
</metadata>
<g transform="translate(0.000000,512.000000) scale(0.100000,-0.100000)"
fill="#000000" stroke="none">
<path d="M1398 5035 c-2 -2 -19 -5 -38 -8 -55 -9 -101 -25 -121 -43 -11 -10
-19 -14 -19 -10 0 4 -16 -11 -37 -33 -20 -23 -42 -41 -48 -41 -35 0 -117 -115
-129 -180 -2 -14 -5 -25 -7 -25 -1 0 -3 -42 -4 -92 -2 -51 1 -93 6 -93 5 0 6
-7 3 -15 -3 -8 -2 -20 2 -27 5 -7 9 -21 10 -30 1 -10 2 -19 4 -20 2 -4 11 -41
12 -55 1 -7 4 -13 7 -13 4 0 7 -10 9 -23 1 -13 8 -42 16 -65 16 -45 15 -49 -6
-29 -56 55 -149 79 -243 62 -145 -24 -236 -122 -240 -255 -2 -71 16 -156 29
-143 5 4 6 3 3 -3 -5 -9 33 -179 50 -224 4 -8 7 -23 8 -32 2 -10 4 -21 5 -25
1 -5 2 -11 1 -15 0 -5 4 -8 11 -8 6 0 9 -2 6 -6 -3 -3 3 -37 14 -77 10 -40 30
-112 43 -162 13 -49 30 -115 39 -145 8 -30 24 -91 36 -135 11 -44 28 -105 36
-135 16 -55 18 -63 31 -130 14 -70 8 -380 -12 -625 -7 -78 -18 -352 -19 -440
-1 -180 31 -367 94 -550 17 -49 32 -94 34 -100 11 -37 120 -265 139 -290 4 -5
33 -50 66 -100 32 -49 68 -100 80 -113 12 -12 19 -22 16 -22 -5 0 191 -195
219 -218 68 -54 290 -188 299 -180 1 2 13 -5 27 -15 13 -9 32 -17 42 -17 10 0
18 -4 18 -8 0 -6 82 -36 130 -47 3 -1 23 -7 45 -13 113 -34 274 -54 460 -57
212 -3 349 11 509 49 111 27 266 83 278 101 4 5 8 6 8 2 0 -9 75 32 136 74 23
15 44 25 48 22 3 -4 6 -2 6 4 0 6 17 22 39 36 71 47 230 214 288 302 14 22 34
52 45 67 10 15 18 32 18 38 0 5 5 10 10 10 6 0 10 4 10 8 0 4 22 49 49 100 27
51 47 92 45 92 -2 0 5 15 16 33 11 17 20 40 20 50 0 9 4 17 8 17 4 0 14 21 21
48 8 26 18 49 22 52 4 3 9 17 12 30 2 14 8 36 14 50 6 14 28 68 49 120 21 52
58 128 82 170 39 66 58 98 107 185 6 11 22 38 36 60 36 60 57 97 71 128 7 15
16 27 20 27 4 0 8 6 8 13 0 7 16 35 34 63 19 29 32 54 29 58 -4 3 -1 6 5 6 7
0 12 4 12 9 0 5 34 67 75 136 41 70 75 131 75 135 0 4 7 13 15 20 8 7 13 16
10 20 -2 4 4 16 15 27 10 12 16 24 13 27 -4 3 -1 6 5 6 7 0 12 4 12 10 0 8 73
139 100 180 14 21 35 74 32 83 -1 4 2 7 6 7 10 0 8 116 -2 153 -5 15 -12 27
-18 27 -5 0 -7 4 -4 9 10 15 -78 98 -133 126 -127 63 -295 20 -356 -90 -35
-64 -50 -90 -55 -95 -11 -10 -260 -451 -260 -459 0 -5 -4 -11 -8 -13 -5 -1
-26 -34 -47 -73 -21 -38 -46 -81 -56 -94 -11 -13 -19 -28 -19 -33 0 -21 -97
-120 -133 -136 -64 -28 -128 -2 -162 64 -11 21 -23 41 -26 44 -3 3 -7 13 -7
23 -4 40 -6 47 -12 47 -7 0 -4 225 4 260 3 14 8 43 11 65 3 22 8 58 11 80 4
22 8 49 10 60 1 11 3 20 4 20 3 0 10 41 12 77 2 21 5 38 8 38 3 0 6 8 6 18 1
23 13 98 25 150 5 23 12 59 15 80 2 20 9 60 14 87 5 28 12 66 14 85 3 19 8 46
11 60 7 34 13 68 20 114 4 21 9 48 11 60 3 11 7 36 10 55 5 41 10 66 34 196
19 105 26 144 35 210 4 22 10 55 15 74 5 19 7 38 4 43 -3 4 -2 8 3 8 4 0 9 12
9 28 1 26 4 41 24 147 5 28 12 66 15 85 3 19 10 58 15 85 5 28 11 64 14 80 2
17 5 31 6 33 5 6 2 50 -6 77 -4 17 -9 32 -9 35 -6 40 -85 123 -134 141 -40 16
-122 31 -161 31 -86 -1 -130 -19 -187 -75 -38 -36 -43 -39 -43 -19 0 80 -89
206 -177 252 -23 12 -47 28 -54 36 -6 8 -18 14 -26 14 -8 0 -12 4 -9 9 7 10
-98 41 -157 45 -23 2 -63 -3 -90 -11 -53 -16 -126 -61 -127 -79 0 -6 -7 -18
-17 -25 -21 -18 -45 -75 -49 -114 -1 -16 -5 -43 -8 -60 -4 -16 -9 -46 -12 -65
-2 -19 -7 -46 -10 -60 -3 -14 -7 -38 -10 -55 -3 -16 -7 -41 -10 -55 -3 -14 -7
-38 -10 -55 -2 -16 -7 -46 -11 -65 -4 -19 -7 -43 -8 -52 -2 -10 -3 -19 -5 -20
-1 -2 -4 -16 -6 -33 -3 -16 -9 -52 -14 -80 -5 -27 -12 -66 -15 -85 -6 -39 -23
-132 -30 -170 -3 -13 -16 -92 -30 -175 -14 -82 -28 -161 -31 -175 -2 -14 -7
-41 -9 -60 -5 -29 -10 -52 -20 -90 0 -3 -5 -32 -10 -65 -5 -33 -9 -62 -10 -65
-2 -9 -15 -84 -21 -125 -3 -22 -7 -42 -9 -45 -2 -3 -6 -25 -10 -50 -4 -25 -9
-49 -13 -55 -3 -5 -7 -16 -8 -25 -5 -27 -9 -45 -16 -56 -4 -5 -5 -19 -4 -30 4
-22 -33 -126 -49 -136 -5 -4 -6 -8 -1 -8 24 0 -21 -30 -46 -30 -29 0 -63 22
-51 34 4 3 1 6 -5 6 -31 0 -91 173 -201 590 -17 62 -39 144 -57 205 -9 33 -18
67 -20 75 -6 37 -15 70 -28 109 -9 22 -13 41 -11 41 2 0 -2 18 -10 40 -8 22
-12 40 -8 40 3 0 0 6 -6 14 -6 8 -11 18 -10 22 1 5 0 11 -1 14 -3 10 -10 35
-16 65 -3 17 -8 37 -11 45 -4 8 -5 21 -4 28 1 6 -2 12 -6 12 -5 0 -10 11 -11
26 -1 14 -6 33 -10 42 -5 9 -8 24 -7 32 0 8 -2 17 -5 20 -3 3 -13 34 -22 70
-9 36 -26 101 -38 145 -12 44 -23 88 -26 98 -5 22 -6 26 -49 187 -19 74 -38
142 -42 150 -3 8 -7 18 -7 22 -1 3 -11 18 -23 32 -13 14 -20 26 -17 26 13 0
-72 62 -102 75 -29 12 -110 26 -116 20z"/>
</g>
</svg>
